<svg xmlns="http://www.w3.org/2000/svg" viewBox="0 0 605.73 148.81"><path d="M564.08 8.59a18.33 18.33 0 0 0 7.2 8.22c4.73 3.1 9.07 3.91 13.23 4.69 5 .94 9.73 1.83 14.52 6.61 6.69 6.69 6.7 12.61 6.7 23.43V98q0 24.32-15.35 37.56c-10.25 8.83-30.14 13.26-50 13.26-19.88 0-39.78-4.43-50-13.26S475 114.2 475 98V51.53q0-24.69 15.45-38.1C500.73 4.47 520.66 0 540.54 0c5 0 10.13.15 14.79 1.5 6.07 1.75 7.29 4.18 8.75 7.09m4.14 109.63q6.78-6.63 6.78-22.77s-.44-32.32.84-40.92c3.26-21.86.2-24.11-4.54-27.61l-.1-.08c-13.26-9.77-45-6.48-58.38 4.52-4.94 4.06-7.1 11.69-7.1 22.71v41.38q0 16.15 6.77 22.77c4.52 4.42 17 6.63 27.87 6.63s23.35-2.21 27.86-6.63m-178.9.11c6 19.35 13.3 27.67 13.3 27.67H445V2h-26.62v112.49a42.7 42.7 0 0 0-7.72-12.1 62 62 0 0 0-8.33-7.64c-4.82-3.82-8.9-7.06-15.4-20-3.87-7.69-5.05-14.38-6.22-21-1.07-6.11-2.14-12.18-5.3-18.93C369.6 22.37 356.55 2 356.55 2H314v144h26.79V33.86a70.7 70.7 0 0 0 13.12 21.94c4.63 5.16 9.38 8.4 13.7 11.36 5.25 3.59 9.87 6.75 12.87 12.38 3.7 6.92 4.46 13.23 5.31 20.33a99.5 99.5 0 0 0 3.53 18.46m-173 30c-21.44 0-41.72-4.42-51.17-13.28S151 112.53 151 94V2h30.71v89.43q0 17.35 6.14 24.58c4.1 4.82 16.82 7.23 28.51 7.23s24.4-2.41 28.52-7.23S251 103 251 91.43V2h30.71v92q0 27.83-14.18 41.11c-9.47 8.86-29.74 13.28-51.17 13.28Zm-199.8-11.6A95.36 95.36 0 0 0 59.28 147a135 135 0 0 0 20.26-1.32 68.9 68.9 0 0 0 22.34-7.12c8.7-4.69 15.53-11.18 19.23-20.52 3.31-8.34 3.47-17 2-25.69a29.8 29.8 0 0 0-10.22-18.25c-6-5.14-12.66-7-20.36-4.72-2.48.74-5 1.4-7.47 2.07l-2.9.78c-5.77 1.56-10.81.35-15-3.94A46.5 46.5 0 0 1 63 63.55c-3-4.08-6.8-6.94-12-7.87a39 39 0 0 1-5.91-1.76l-.84-.3a15.7 15.7 0 0 1-7.38-4.78c-4.48-5.64-3-15.35 3-19.86a22.9 22.9 0 0 1 9-4c9.16-2 18.29-1.37 27.34.65a79.8 79.8 0 0 1 30.1 14.2c.92.68 1.15.46 1.57-.43 2.76-5.89 5.53-11.76 8.38-17.6a1.48 1.48 0 0 0-.33-2 55.9 55.9 0 0 0-18-12.19C84.33 1.65 70.06-.55 55.31.11A75.2 75.2 0 0 0 33.57 4C21.81 8.09 12.81 15.44 7.46 26.81c-4.1 8.73-4.57 17.93-2.83 27.32 1.8 9.76 7.2 16.79 16 21.46C31 81.16 46 83.74 59.19 86c8 1.38 15.34 2.65 20.65 4.4s11.49 5.9 12.8 9.48c2.13 5.86-.35 15.55-8.75 19.78A33.8 33.8 0 0 1 70.11 123a94.2 94.2 0 0 1-29.42-3 77.8 77.8 0 0 1-29.09-15.36c-1-.8-1.33-.67-1.87.4q-4.68 9.22-9.47 18.38a1.34 1.34 0 0 0 .33 1.91 71.2 71.2 0 0 0 15.96 11.42Z" style="fill-rule:evenodd"/></svg>